<svg width="560" height="120" viewBox="0 0 560 120" fill="none" xmlns="http://www.w3.org/2000/svg">
  <rect width="560" height="120" rx="28" fill="#FBF4EA" />
  <g transform="translate(18 12)">
    <rect x="0" y="0" width="96" height="96" rx="24" fill="#2F2116" />
    <circle cx="42" cy="54" r="28" fill="#D59B54" />
    <circle cx="63" cy="34" r="10" fill="#FBF4EA" />
    <circle cx="34" cy="46" r="3.5" fill="#6D3F1A" />
    <circle cx="50" cy="44" r="4" fill="#6D3F1A" />
    <circle cx="54" cy="60" r="3.5" fill="#6D3F1A" />
    <circle cx="36" cy="66" r="4" fill="#6D3F1A" />
    <path d="M68 58L82 64V79C82 86.8 76.7 94.1 68 98C59.3 94.1 54 86.8 54 79V64L68 58Z" fill="#248C74" />
    <path d="M61.5 77L66.8 82.2L76.7 71.5" stroke="#FBF8F1" stroke-width="5.2" stroke-linecap="round" stroke-linejoin="round" />
  </g>
  <text x="136" y="58" fill="#382918" font-family="Georgia, 'Times New Roman', serif" font-size="42" font-weight="700">
    Cookieless
  </text>
  <text x="138" y="84" fill="#7C6247" font-family="'Segoe UI Variable', 'Aptos', sans-serif" font-size="14" font-weight="700" letter-spacing="2">
    QUIET COOKIE HANDLING FOR CHROME
  </text>
</svg>
